<svg id="Layer_1" enable-background="new 0 0 512 512" height="512" viewBox="0 0 512 512" width="512" xmlns="http://www.w3.org/2000/svg"><g><path d="m136.33 375.757c-10.09-6.65-19.572-14.389-28.186-23.001-33.83-33.83-52.461-78.837-52.461-126.729 0-122.259 120.666-194.342 217.531-215.913 50.874-11.328 108.058-13.149 169.96-5.412 7.861.983 13.603 7.909 13.11 15.816-.492 7.907-7.048 14.068-14.971 14.068-68.152.001-137.385 41.438-184.598 90.745-61.528 64.258-96.024 148.813-97.133 238.089-.068 5.484-3.124 10.494-7.969 13.064-4.828 2.562-10.691 2.3-15.283-.727z" fill="#d9ff7d"/><path d="m144.556 512c-8.284 0-15-6.716-15-15v-133.787c0-8.284 6.716-15 15-15s15 6.716 15 15v133.787c0 8.284-6.716 15-15 15z" fill="#66a182"/><path d="m455.722 15.41c-1.858-6.413-7.731-10.825-14.407-10.825-69.203.001-146.312 37.383-206.266 99.997-66.805 69.768-104.259 161.56-105.463 258.464 0 .032.002.064.002.096-.019.042-.032.07-.032.07v7.838c2.226 1.621 4.482 3.195 6.774 4.706 69.577 45.857 164.208 38.064 225.272-23.002 52.832-52.832 41.873-125.622 38.263-166.473-5.512-62.365-10.272-116.225 49.469-154.021 5.643-3.568 8.246-10.437 6.388-16.85z" fill="#97db4f"/></g></svg>