<svg height="464pt" viewBox="0 0 464 464" width="464pt" xmlns="http://www.w3.org/2000/svg"><path d="m216 192h-152v272h192v-272zm0 0" fill="#ff9811"/><path d="m288 96v-64h-48v64l-48 96v272h144v-272zm0 0" fill="#5aaae7"/><path d="m0 192h64v272h-64zm0 0" fill="#ee8700"/><path d="m336 216h-32v32h128v-32zm0 0" fill="#009986"/><path d="m432 248 32 56h-64zm0 0" fill="#009986"/><path d="m400 304h64v160h-64zm0 0" fill="#00b39d"/><path d="m336 248h-32l-32 56h128l32-56zm0 0" fill="#00b39d"/><path d="m336 304h-64v160h128v-160zm0 0" fill="#00ccb3"/><path d="m240 0h48v32h-48zm0 0" fill="#e6e7e8"/><g fill="#cc7400"><path d="m32 416 32 48h-64zm0 0"/><path d="m64 192-32 48-32-48zm0 0"/><path d="m112 232h-16v-80c-.003906-25.769531 15.449219-49.027344 39.210938-59.011719 23.757812-9.980469 51.183593-4.738281 69.589843 13.300781l-11.199219 11.421876c-13.804687-13.527344-34.375-17.460938-52.195312-9.972657s-29.410156 24.933594-29.40625 44.261719zm0 0"/><path d="m160 192h-16v-40c0-26.507812-21.492188-48-48-48s-48 21.492188-48 48v40h-16v-40c0-35.347656 28.652344-64 64-64s64 28.652344 64 64zm0 0"/></g><path d="m240 24h48v16h-48zm0 0" fill="#1e81ce"/></svg>