<svg height="512pt" viewBox="0 -58 512 512" width="512pt" xmlns="http://www.w3.org/2000/svg"><path d="m335.347656 394.921875h-320.347656c-8.285156 0-15-6.714844-15-15v-46.734375c0-22.433594 7.125-43.472656 20.601562-60.839844 13.476563-17.367187 32.089844-29.492187 53.824219-35.0625l51.867188-13.289062c5.847656-1.503906 12.023437.652344 15.671875 5.460937l33.207031 43.757813 32.839844-43.269532c3.632812-4.789062 9.777343-6.945312 15.601562-5.480468l51.855469 13.027344c21.839844 5.484374 40.558594 17.585937 54.132812 34.992187 13.570313 17.40625 20.746094 38.507813 20.746094 61.023437v46.414063c0 8.285156-6.714844 15-15 15zm0 0" fill="#62e3f8"/><path d="m329.597656 272.480469c-13.570312-17.402344-32.289062-29.503907-54.128906-34.988281l-51.855469-13.027344c-5.824219-1.464844-11.96875.691406-15.601562 5.480468l-32.839844 43.269532v121.707031h160.175781c8.28125 0 15-6.714844 15-15v-46.414063c0-22.519531-7.175781-43.617187-20.75-61.027343zm0 0" fill="#00c0f1"/><path d="m497 395h-185c-8.285156 0-15-6.714844-15-15v-185c0-8.285156 6.714844-15 15-15h185c8.285156 0 15 6.714844 15 15v185c0 8.285156-6.714844 15-15 15zm0 0" fill="#ffe046"/><path d="m497 180h-92.5v215h92.5c8.285156 0 15-6.714844 15-15v-185c0-8.285156-6.714844-15-15-15zm0 0" fill="#fdbf00"/><path d="m175.171875 202c-55.691406 0-101-45.308594-101-101s45.308594-101 101-101 101.003906 45.308594 101.003906 101-45.3125 101-101.003906 101zm0 0" fill="#fdd1a3"/><path d="m365.917969 270.230469c-4.429688-2.730469-7.125-7.5625-7.125-12.765625v-62.464844c0-8.285156 6.714843-15 15-15h61.601562c8.285157 0 15 6.714844 15 15v62.464844c0 5.203125-2.695312 10.035156-7.125 12.769531-4.429687 2.730469-9.960937 2.972656-14.609375.632813l-24.066406-12.09375-24.066406 12.09375c-5.339844 2.070312-12.203125.847656-14.609375-.636719zm0 0" fill="#e69f34"/><path d="m175.171875 0v202c55.691406 0 101-45.308594 101-101s-45.308594-101-101-101zm0 0" fill="#ffbb85"/><path d="m435.394531 180h-30.800781v78.773438l24.066406 12.09375c4.648438 2.339843 10.179688 2.097656 14.609375-.636719 4.429688-2.730469 7.125-7.5625 7.125-12.765625v-62.464844c0-8.285156-6.714843-15-15-15zm0 0" fill="#bb7c14"/></svg>